<svg width="1200" height="675" viewBox="0 0 1200 675" fill="none" xmlns="http://www.w3.org/2000/svg">
  <rect width="1200" height="675" fill="#08090C" rx="2"/>
  <rect x="24" y="24" width="1152" height="627" fill="#0F1117" stroke="#1B1E28" stroke-width="1"/>

  <text x="60" y="80" font-family="monospace" font-size="12" fill="#C8F135">010 // ONE GREAT NORTHERN</text>
  <text x="60" y="140" font-family="sans-serif" font-size="36" font-weight="900" fill="#F8FAFC">INDUSTRIAL HERITAGE</text>
  <text x="60" y="180" font-family="monospace" font-size="12" fill="#94A3B8">FACADE PROPORTION &#183; FLOORPLATE VOLUME &#183; LEASING UX</text>

  <!-- Facade elevation: bay structure across the frame -->
  <rect x="60" y="230" width="1080" height="360" fill="#141822" stroke="#1E2434" stroke-width="1"/>
  <g stroke="#1E2434" stroke-width="1">
    <line x1="60" y1="290" x2="1140" y2="290"/>
    <line x1="60" y1="410" x2="1140" y2="410"/>
    <line x1="60" y1="530" x2="1140" y2="530"/>
  </g>
  <g fill="#1A1F2B">
    <rect x="96" y="310" width="96" height="76"/><rect x="216" y="310" width="96" height="76"/>
    <rect x="336" y="310" width="96" height="76"/><rect x="456" y="310" width="96" height="76"/>
    <rect x="576" y="310" width="96" height="76"/><rect x="696" y="310" width="96" height="76"/>
    <rect x="816" y="310" width="96" height="76"/><rect x="936" y="310" width="96" height="76"/>
    <rect x="96" y="430" width="96" height="76"/><rect x="216" y="430" width="96" height="76"/>
    <rect x="336" y="430" width="96" height="76"/><rect x="456" y="430" width="96" height="76"/>
    <rect x="576" y="430" width="96" height="76"/><rect x="696" y="430" width="96" height="76"/>
    <rect x="816" y="430" width="96" height="76"/><rect x="936" y="430" width="96" height="76"/>
  </g>
  <!-- Signal: the surveyed bay -->
  <rect x="576" y="310" width="96" height="196" fill="none" stroke="#C8F135" stroke-width="1.5"/>
  <text x="576" y="300" font-family="monospace" font-size="10" fill="#C8F135">BAY 05 &#183; 4.2M</text>

  <text x="96" y="572" font-family="monospace" font-size="11" fill="#64748B">MULLION SPACING 1200MM</text>
  <text x="480" y="572" font-family="monospace" font-size="11" fill="#64748B">DAYLIGHT RATIO 0.62</text>
  <text x="880" y="572" font-family="monospace" font-size="11" fill="#64748B">NIA 48,400 SQ FT</text>
  <text x="60" y="628" font-family="monospace" font-size="11" fill="#475569">AVORRIA &#183; COMMERCIAL PROPERTY &amp; BRAND TRANSFORMATION</text>
</svg>
