<svg width="1920" height="1080" viewBox="0 0 1920 1080" fill="none" xmlns="http://www.w3.org/2000/svg">
  <rect width="1920" height="1080" fill="#0B0C10"/>
  <!-- Flagship Navigation Bar -->
  <rect width="1920" height="72" fill="#101218" stroke="#1F232F" stroke-width="1"/>
  <text x="64" y="44" font-family="sans-serif" font-size="18" font-weight="900" fill="#F8FAFC" letter-spacing="4">ALKOTA BIKES</text>
  <text x="960" y="44" font-family="monospace" font-size="11" fill="#94A3B8" letter-spacing="2">TITANIUM 001 // DIGITAL FLAGSHIP</text>
  <rect x="1720" y="20" width="136" height="32" rx="2" fill="#C8F135"/>
  <text x="1750" y="41" font-family="sans-serif" font-size="11" font-weight="700" fill="#0B0C10" letter-spacing="1">RESERVE</text>

  <!-- Left Column: Product Spec Architecture -->
  <rect x="64" y="120" width="480" height="880" fill="#101218" stroke="#1E222D" stroke-width="1"/>
  <text x="96" y="170" font-family="sans-serif" font-size="28" font-weight="800" fill="#F8FAFC">TITANIUM 001</text>
  <text x="96" y="200" font-family="monospace" font-size="12" fill="#C8F135">HANDCRAFTED // 3AL-2.5V CHASSIS</text>
  
  <line x1="96" y1="230" x2="512" y2="230" stroke="#1E222D" stroke-width="1"/>

  <text x="96" y="270" font-family="monospace" font-size="10" fill="#64748B">FRAME FINISH</text>
  <rect x="96" y="290" width="190" height="40" fill="#181B24" stroke="#C8F135" stroke-width="1.5"/>
  <text x="120" y="315" font-family="monospace" font-size="11" fill="#F8FAFC">RAW TITANIUM (BRUSHED)</text>
  
  <rect x="300" y="290" width="190" height="40" fill="#181B24" stroke="#2B3141" stroke-width="1"/>
  <text x="324" y="315" font-family="monospace" font-size="11" fill="#94A3B8">OBSIDIAN ANODIZED</text>

  <!-- Spec Metrics Breakdown -->
  <text x="96" y="390" font-family="monospace" font-size="10" fill="#64748B">SPECIFICATIONS</text>
  <rect x="96" y="410" width="394" height="64" fill="#141720"/>
  <text x="116" y="446" font-family="monospace" font-size="11" fill="#F8FAFC">TRAVEL: 160MM FRONT / 150MM REAR</text>

  <rect x="96" y="484" width="394" height="64" fill="#141720"/>
  <text x="116" y="520" font-family="monospace" font-size="11" fill="#F8FAFC">WHEELSET: 29" FULL CARBON HOOKLESS</text>

  <!-- Center-Right: Interactive Product Visual Frame -->
  <rect x="576" y="120" width="1280" height="880" fill="#0E1015" stroke="#1E222D" stroke-width="1"/>
  <circle cx="1216" cy="560" r="280" fill="#12151E"/>
  <text x="1080" y="570" font-family="monospace" font-size="14" fill="#C8F135" letter-spacing="3">[INTERACTIVE 3D STAGE]</text>
</svg>
